# xmcd
#
# Track frame offsets: 
#        150
#        15825
#        38935
#
# Disc length: 734 seconds
#
# Revision: 4
# Processed by: cddbd v1.4PL0 Copyright (c) Steve Scherf et al.
# Submitted via: ExactAudioCopy v0.90b3
#
DISCID=1502dc03
DTITLE=Tobsucht - Zum Lachen in den Keller gehen
DYEAR=1998
DGENRE=Acid Jazz
TTITLE0=Zum Lachen in den Keller gehen
TTITLE1=Engel jagen
TTITLE2=Zum Lachen in den Keller gehen (8 M.H. Mischung)
EXTD=
EXTT0=
EXTT1=
EXTT2=
PLAYORDER=
